<?xml version="1.0" standalone="no"?>
<!DOCTYPE svg PUBLIC "-//W3C//DTD SVG 20010904//EN"
 "http://www.w3.org/TR/2001/REC-SVG-20010904/DTD/svg10.dtd">
<svg version="1.0" xmlns="http://www.w3.org/2000/svg"
 width="459.000000pt" height="459.000000pt" viewBox="0 0 459.000000 459.000000"
 preserveAspectRatio="xMidYMid meet">
<metadata>
Created by potrace 1.14, written by Peter Selinger 2001-2017
</metadata>
<g transform="translate(0.000000,459.000000) scale(0.100000,-0.100000)"
fill="#000000" stroke="none">
<path d="M1796 4148 c0 -244 -1 -448 -3 -454 -3 -8 -169 -12 -601 -12 -328 0
-611 -1 -627 -1 l-31 -1 0 -478 0 -478 615 1 c339 0 623 -1 633 -3 12 -3 15
-13 13 -42 -2 -20 0 -42 4 -48 4 -7 49 -10 126 -9 l120 2 0 175 0 175 -615 1
c-338 1 -622 2 -630 3 -13 1 -15 33 -14 223 l0 223 631 3 631 2 0 423 c0 232
1 436 1 454 l1 31 250 0 250 0 0 -454 0 -454 605 0 c569 0 605 -1 606 -17 4
-69 1 -422 -4 -429 -3 -5 -268 -9 -606 -8 l-601 0 0 -177 0 -177 119 -1 c132
-1 139 2 136 62 -1 20 3 37 9 38 6 1 275 2 598 2 322 1 590 6 594 10 4 4 8
219 8 477 l1 470 -25 1 c-14 0 -286 1 -605 2 l-580 2 0 453 0 452 -505 0 -505
0 1 -442z"/>
<path d="M1335 2572 c-12 -2 -27 -13 -35 -26 -142 -223 -548 -870 -555 -883
-5 -10 -20 -33 -32 -50 -13 -17 -23 -34 -23 -37 0 -3 -13 -24 -29 -48 -25 -37
-378 -598 -480 -761 -20 -32 -44 -70 -53 -85 -10 -15 -24 -38 -32 -52 l-14
-25 146 1 c81 1 150 2 154 3 5 1 28 36 64 96 14 24 415 664 452 720 14 22 35
56 47 75 12 19 43 68 68 107 26 40 47 77 47 82 0 5 4 11 8 13 4 2 18 21 31 43
25 41 30 50 125 197 31 48 56 90 56 94 0 3 6 12 13 19 6 8 44 66 82 129 39 64
72 116 75 116 8 0 210 -396 210 -411 0 -13 -24 -51 -502 -812 -158 -252 -288
-461 -288 -465 0 -6 262 -9 292 -3 3 0 52 74 108 164 169 270 339 541 350 557
6 8 25 39 43 67 95 154 139 224 142 221 1 -2 47 -91 103 -199 88 -173 99 -199
87 -215 -14 -21 -375 -595 -375 -598 0 -1 68 -1 151 -1 122 0 152 3 159 15 69
116 207 324 214 323 5 -1 48 -77 95 -170 l86 -168 323 0 c249 0 322 3 322 12
0 7 -15 41 -34 75 -18 35 -95 185 -171 333 -76 149 -165 323 -199 388 l-61
119 21 36 c37 63 4 114 307 -478 69 -135 150 -294 181 -355 31 -60 61 -114 67
-120 6 -6 125 -10 333 -10 l323 0 -85 165 c-46 91 -130 255 -187 365 -56 110
-147 288 -202 395 -55 107 -155 301 -221 431 l-121 236 26 41 c15 23 30 38 34
34 4 -4 64 -119 134 -257 70 -137 163 -317 205 -400 42 -82 141 -274 218 -425
78 -151 177 -345 221 -430 l79 -155 314 -1 c172 0 319 2 326 4 12 4 -62 152
-523 1047 -45 88 -138 268 -205 400 -157 308 -261 509 -265 513 -3 3 -581 5
-636 3 -9 -1 -16 -7 -16 -13 2 -17 -35 -88 -45 -88 -4 0 -19 23 -33 50 -14 28
-32 50 -40 51 -60 3 -626 1 -628 -2 -1 -2 -13 -25 -26 -51 -13 -27 -27 -48
-30 -48 -4 0 -18 22 -32 50 l-24 50 -55 1 c-204 3 -568 4 -585 1z m1027 -566
l61 -118 -21 -36 c-11 -20 -25 -38 -30 -40 -6 -2 -45 65 -87 149 -43 84 -86
167 -96 186 -23 41 -24 66 -4 83 8 7 15 18 15 25 0 8 5 15 12 17 7 3 29 -28
51 -71 21 -42 66 -129 99 -195z"/>
<path d="M1802 500 c-4 -3 -8 -116 -7 -252 l0 -248 505 0 505 0 -1 242 c-1
134 -2 248 -3 253 -1 8 -201 13 -243 6 -4 0 -9 -56 -10 -123 l-3 -123 -247 -1
-248 -1 -1 36 c-1 20 0 75 1 124 1 48 -2 88 -7 88 -30 4 -235 4 -241 -1z"/>
</g>
</svg>
